<svg width="44" height="45" viewBox="0 0 44 45" fill="none" xmlns="http://www.w3.org/2000/svg">
<g clip-path="url(#clip0_1_1003)">
<path d="M33.5138 10.2559L23.8084 8.54452C22.1752 8.25659 20.6122 9.35097 20.3242 10.9843L20.0933 12.2933C19.9784 12.3103 19.8637 12.3333 19.7498 12.3638L10.2305 14.9145C9.45452 15.1224 8.8059 15.6201 8.40424 16.3158C8.00257 17.0116 7.89583 17.8222 8.1038 18.5982L12.3024 34.2679C12.5103 35.0439 13.008 35.6925 13.7038 36.0942C14.1672 36.3618 14.6815 36.4984 15.2027 36.4984C15.4639 36.4984 15.727 36.4641 15.9861 36.3946L25.5054 33.8439C26.2813 33.636 26.93 33.1383 27.3316 32.4426C27.451 32.2359 27.5436 32.0189 27.6104 31.7958L29.6523 32.1559C29.8282 32.1869 30.0032 32.2019 30.176 32.2019C31.6074 32.2019 32.8796 31.1735 33.1366 29.7161L35.9535 13.7402C36.2415 12.1069 35.147 10.5439 33.5138 10.2559ZM26.0474 30.5849C26.1419 30.9376 26.0934 31.3061 25.9108 31.6223C25.7282 31.9386 25.4334 32.1648 25.0807 32.2593L15.5614 34.81C15.2087 34.9046 14.8403 34.8561 14.524 34.6734C14.2078 34.4908 13.9815 34.196 13.887 33.8433L9.68841 18.1736C9.59392 17.8209 9.64242 17.4524 9.82502 17.1361C10.0076 16.8199 10.3024 16.5937 10.6551 16.4992L20.1744 13.9484C20.2922 13.9169 20.4118 13.9012 20.5305 13.9012C20.7674 13.9012 21.0012 13.9634 21.2118 14.085C21.528 14.2676 21.7543 14.5624 21.8488 14.9151L26.0474 30.5849ZM24.4044 18.1144C24.4104 18.0675 24.4167 18.0207 24.4249 17.9742C24.5134 17.4722 24.9516 17.118 25.4447 17.118C25.5042 17.118 25.5645 17.1231 25.6251 17.1338C26.0067 17.2012 26.3166 17.4732 26.4335 17.8439C26.5255 18.1355 26.7721 18.3518 27.0733 18.4049C27.3746 18.458 27.6802 18.3391 27.8664 18.0966C28.1031 17.7883 28.4872 17.6386 28.8689 17.7059C29.1414 17.7539 29.3789 17.9052 29.5377 18.1319C29.6964 18.3586 29.7574 18.6335 29.7093 18.9061C29.3831 20.7564 27.2977 22.3309 26.2613 23.0102C26.0014 22.6621 25.658 22.1664 25.3357 21.59L24.4044 18.1144ZM34.3379 13.4553L31.5209 29.4313C31.39 30.1737 30.6795 30.671 29.9371 30.5403L27.6246 30.1326L26.2212 24.895C26.3044 24.8795 26.3863 24.851 26.4638 24.8087C26.6387 24.7134 30.7526 22.4368 31.3249 19.1909C31.5812 17.7375 30.6072 16.3465 29.1538 16.0902C28.5535 15.9844 27.9509 16.0859 27.4337 16.3611C27.0417 15.9256 26.5103 15.6241 25.9099 15.5182C25.206 15.394 24.4956 15.5515 23.9099 15.9616C23.8865 15.978 23.8639 15.9953 23.8411 16.0123L23.4334 14.4905C23.2255 13.7145 22.7278 13.0659 22.032 12.6642C21.9308 12.6058 21.8268 12.5543 21.7212 12.5084L21.9397 11.2691C22.0706 10.5268 22.7812 10.0293 23.5235 10.1602L33.2288 11.8715C33.9713 12.0024 34.4688 12.7129 34.3379 13.4553Z" fill="#6F6E7C"/>
</g>
<defs>
<clipPath id="clip0_1_1003">
<rect width="27.9996" height="28" fill="white" transform="translate(8 8.5)"/>
</clipPath>
</defs>
</svg>
