<svg width="45" height="45" viewBox="0 0 45 45" fill="none" xmlns="http://www.w3.org/2000/svg">
<g clip-path="url(#clip0_1_1011)">
<path d="M35.9446 17.5304C34.0466 11.2084 26.9288 7.84731 20.145 9.98132C13.3611 12.1153 9.44195 18.9531 11.3488 25.2573C11.6665 26.3051 12.1406 27.2976 12.7548 28.2004C12.867 28.3675 12.9197 28.5682 12.9042 28.7695C12.8431 29.4453 12.6368 30.0993 12.2999 30.686C11.9629 31.2727 11.5034 31.7779 10.9534 32.1661C9.86374 32.913 10.0219 33.7133 11.3049 33.5621C12.8826 33.4141 14.3812 32.7951 15.6107 31.7838C15.7148 31.6608 15.8596 31.5803 16.0181 31.5574C16.1765 31.5345 16.3378 31.5707 16.4718 31.6593C19.5211 33.7044 23.1678 34.0423 27.1924 32.7708C33.9411 30.6723 37.8779 23.8346 35.9446 17.5304Z" stroke="#6F6E7C" stroke-width="1.8" stroke-miterlimit="10"/>
<rect x="29.3667" y="9.2" width="14.6" height="11.6" rx="5.8" fill="#B5B3FF"/>
<rect x="29.3667" y="9.2" width="14.6" height="11.6" rx="5.8" stroke="#0F1115" stroke-width="1.4"/>
<path d="M35.4723 17.5H34.4783V14.112L33.7013 14.903L33.1343 14.308L34.6043 12.831H35.4723V17.5ZM38.1052 17.584C36.7682 17.584 36.1732 16.373 36.1732 15.169C36.1732 13.965 36.7682 12.761 38.1052 12.761C39.4352 12.761 40.0372 13.965 40.0372 15.169C40.0372 16.373 39.4352 17.584 38.1052 17.584ZM38.1052 16.702C38.7702 16.702 39.0222 16.03 39.0222 15.169C39.0222 14.308 38.7702 13.643 38.1052 13.643C37.4332 13.643 37.1812 14.308 37.1812 15.169C37.1812 16.03 37.4332 16.702 38.1052 16.702Z" fill="#0F1115"/>
</g>
<defs>
<clipPath id="clip0_1_1011">
<rect width="44" height="44" fill="white" transform="translate(0.666656 0.5)"/>
</clipPath>
</defs>
</svg>
