<svg width="45" height="45" viewBox="0 0 45 45" fill="none" xmlns="http://www.w3.org/2000/svg">
<path d="M22.5333 37.5C16.2086 37.5 11.3333 32.7565 11.3333 26.5636C11.3333 24.3236 11.7286 22.6106 12.5192 21.293C13.3098 20.1071 13.7051 19.5801 14.3639 18.9213C14.6274 18.7895 14.7592 18.526 15.0227 18.2624L15.418 17.7354C16.0768 17.0766 16.2086 16.9448 16.8674 15.7589C17.5262 14.573 18.0533 11.806 18.0533 9.82952C18.0533 9.30247 18.3168 8.90717 18.8439 8.64365C19.2392 8.38012 19.7662 8.51188 20.1615 8.77541L20.8203 9.30247C22.2698 10.3566 24.1145 11.9378 25.5639 14.1777C26.4862 15.6271 27.4086 17.6036 27.9356 19.1848C28.1991 18.6577 28.4627 17.9989 28.5944 17.2083C28.7262 16.6813 29.1215 16.1542 29.6486 16.0224C30.1756 15.8907 30.8344 16.1542 31.098 16.6813C32.0203 18.2624 32.1521 18.526 32.9427 20.8977C33.7332 23.4012 33.865 24.9824 33.865 26.4318C33.7332 32.493 28.7262 37.5 22.5333 37.5ZM20.4251 12.4648C20.1615 14.1777 19.7662 15.8907 19.1074 17.0766C18.3168 18.3942 18.0533 18.7895 17.3945 19.5801L16.9992 19.9754C16.7357 20.2389 16.4721 20.5024 16.3404 20.766C15.8133 21.4248 15.418 21.8201 14.7592 22.7424C14.2321 23.6648 13.9686 24.9824 13.9686 26.6953C13.9686 31.3071 17.7898 34.9965 22.5333 34.9965C27.2768 34.9965 31.098 31.1753 31.098 26.4318C31.098 25.1142 31.098 23.9283 30.3074 21.8201C30.1756 21.4248 30.0438 21.1612 30.0438 20.8977C29.385 21.9518 28.5944 22.6106 28.1991 22.8742C27.8039 23.1377 27.2768 23.2695 26.7497 23.0059C26.3544 22.7424 25.9592 22.3471 25.9592 21.8201C25.9592 21.4248 24.905 17.8671 23.4556 15.6271C22.5333 14.3095 21.4792 13.2554 20.4251 12.4648Z" fill="#6F6E7C"/>
<rect x="29.0333" y="9.2" width="14.6" height="11.6" rx="5.8" fill="#B5B3FF"/>
<rect x="29.0333" y="9.2" width="14.6" height="11.6" rx="5.8" stroke="#0F1115" stroke-width="1.4"/>
</svg>
